<svg width="310" height="310" viewBox="0 0 310 310" fill="none" xmlns="http://www.w3.org/2000/svg">
<path d="M199.4 290.6C177.8 290.6 158.7 286 142.1 276.8C125.5 267.4 112.5 254.6 103.1 238.4C93.7 222 89 203.3 89 182.3C89 161.1 93.7 142.4 103.1 126.2C112.5 109.8 125.4 97 141.8 87.8C158.4 78.4 177.4 73.7 198.8 73.7C220.2 73.7 239.1 78.4 255.5 87.8C272.1 97 285.1 109.8 294.5 126.2C303.9 142.4 308.6 161.1 308.6 182.3C308.6 203.3 303.9 222 294.5 238.4C285.3 254.6 272.5 267.4 256.1 276.8C239.7 286 220.8 290.6 199.4 290.6ZM199.4 246.2C211.2 246.2 221.6 243.5 230.6 238.1C239.6 232.7 246.6 225.2 251.6 215.6C256.6 205.8 259.1 194.7 259.1 182.3C259.1 169.7 256.5 158.6 251.3 149C246.1 139.2 239 131.6 230 126.2C221 120.6 210.6 117.8 198.8 117.8C187 117.8 176.6 120.6 167.6 126.2C158.6 131.6 151.5 139.2 146.3 149C141.1 158.6 138.5 169.7 138.5 182.3C138.5 194.7 141.1 205.8 146.3 215.6C151.5 225.2 158.7 232.7 167.9 238.1C177.1 243.5 187.6 246.2 199.4 246.2Z" fill="#6360AD"/>
<path d="M90.0208 146.361L64.3093 119.88C63.0366 118.569 63.4699 116.39 65.1472 115.666L206.824 54.5018C208.344 53.8458 210.082 54.7521 210.415 56.3735L214.118 74.4331L216.537 91.6716C216.656 92.5202 216.349 93.3648 215.751 93.9779C207.762 102.159 198.733 120.693 167.144 136.738C135.409 152.857 103.147 147.383 91.9433 147.177C91.2183 147.163 90.526 146.881 90.0208 146.361Z" fill="#746CC5"/>
<path d="M90.0208 146.361L64.3093 119.88C63.0366 118.569 63.4699 116.39 65.1472 115.666L206.824 54.5018C208.344 53.8458 210.082 54.7521 210.415 56.3735L214.118 74.4331L216.537 91.6716C216.656 92.5202 216.349 93.3648 215.751 93.9779C207.762 102.159 198.733 120.693 167.144 136.738C135.409 152.857 103.147 147.383 91.9433 147.177C91.2183 147.163 90.526 146.881 90.0208 146.361Z" fill="url(#paint0_linear_1265_224)"/>
<path d="M104.621 18.7643L5.90967 117.475C4.20598 119.179 5.52397 122.084 7.92805 121.924L147.3 112.66C147.898 112.621 148.464 112.376 148.903 111.968L245.136 22.5211C246.873 20.9067 245.73 18 243.359 18H106.466C105.774 18 105.11 18.2749 104.621 18.7643Z" fill="url(#paint1_linear_1265_224)" stroke="white" stroke-width="2.60962" stroke-linecap="round"/>
<path fill-rule="evenodd" clip-rule="evenodd" d="M128.5 65.2176C130.237 63.6998 130.414 61.062 128.896 59.3259C127.378 57.5898 124.74 57.4129 123.004 58.9307L58.7951 115.066C57.0856 116.561 56.8878 119.141 58.3312 120.877C66.2209 161.918 64.8132 192.489 52.6554 214.86C50.5906 218.659 48.5441 222.42 46.498 226.093C37.3968 237.803 23.8657 248.101 12.986 252.776C10.9998 253.629 10.0814 255.931 10.9349 257.918C11.7884 259.904 14.0905 260.822 16.0768 259.969C20.6344 258.01 25.5543 255.207 30.4485 251.787C25.6896 258.145 20.8581 263.235 15.815 266.624C13.901 267.911 13.3922 270.505 14.6784 272.419C15.9647 274.333 18.5589 274.842 20.4729 273.555C28.3825 268.24 35.3048 259.886 41.65 250.388C42.3984 249.268 43.1419 248.127 43.8811 246.967C40.0234 256.675 34.6794 265.142 29.2982 272.207C27.9883 273.927 28.3207 276.383 30.0406 277.693C31.7605 279.003 34.2166 278.671 35.5265 276.951C45.3906 263.999 55.5971 245.991 57.2315 223.918C58.1542 222.229 59.0742 220.537 59.9926 218.847C73.5342 193.931 74.5424 161.017 66.5472 119.381L128.5 65.2176Z" fill="#6360AD"/>
<path d="M56.952 218.149L53.7749 217.092C53.1697 216.891 52.5076 217.157 52.2095 217.721L49.7365 222.398C49.3596 223.111 49.713 223.992 50.4781 224.246L54.0678 225.441C54.7117 225.655 55.4123 225.34 55.6793 224.716L57.7397 219.901C58.04 219.199 57.6763 218.39 56.952 218.149Z" stroke="#9D91D8" stroke-width="7.82887" stroke-linecap="round"/>
<defs>
<linearGradient id="paint0_linear_1265_224" x1="95.4685" y1="95.7668" x2="200.229" y2="64.4788" gradientUnits="userSpaceOnUse">
<stop stop-color="#BAA9E3"/>
<stop offset="1" stop-color="#6360AD"/>
</linearGradient>
<linearGradient id="paint1_linear_1265_224" x1="89.7272" y1="39.9208" x2="162.797" y2="109.859" gradientUnits="userSpaceOnUse">
<stop stop-color="#BAA9E3"/>
<stop offset="1" stop-color="#6360AD"/>
</linearGradient>
</defs>
</svg>
