<svg width="1039" height="330" viewBox="0 0 1039 330" fill="none" xmlns="http://www.w3.org/2000/svg">
<path d="M194.4 269.6C172.8 269.6 153.7 265 137.1 255.8C120.5 246.4 107.5 233.6 98.1 217.4C88.7 201 84 182.3 84 161.3C84 140.1 88.7 121.4 98.1 105.2C107.5 88.8 120.4 76 136.8 66.8C153.4 57.4 172.4 52.7 193.8 52.7C215.2 52.7 234.1 57.4 250.5 66.8C267.1 76 280.1 88.8 289.5 105.2C298.9 121.4 303.6 140.1 303.6 161.3C303.6 182.3 298.9 201 289.5 217.4C280.3 233.6 267.5 246.4 251.1 255.8C234.7 265 215.8 269.6 194.4 269.6ZM194.4 225.2C206.2 225.2 216.6 222.5 225.6 217.1C234.6 211.7 241.6 204.2 246.6 194.6C251.6 184.8 254.1 173.7 254.1 161.3C254.1 148.7 251.5 137.6 246.3 128C241.1 118.2 234 110.6 225 105.2C216 99.6 205.6 96.8 193.8 96.8C182 96.8 171.6 99.6 162.6 105.2C153.6 110.6 146.5 118.2 141.3 128C136.1 137.6 133.5 148.7 133.5 161.3C133.5 173.7 136.1 184.8 141.3 194.6C146.5 204.2 153.7 211.7 162.9 217.1C172.1 222.5 182.6 225.2 194.4 225.2Z" fill="#6360AD"/>
<path d="M324.518 330V106H371.558L374.438 135.44V330H324.518ZM419.878 269.84C406.651 269.84 395.558 266.533 386.598 259.92C377.638 253.093 370.918 243.387 366.438 230.8C361.958 218.213 359.718 203.28 359.718 186C359.718 168.507 361.958 153.573 366.438 141.2C370.918 128.613 377.638 119.013 386.598 112.4C395.558 105.573 406.651 102.16 419.878 102.16C434.811 102.16 447.718 105.573 458.598 112.4C469.478 119.013 477.798 128.613 483.558 141.2C489.318 153.573 492.198 168.507 492.198 186C492.198 203.28 489.318 218.213 483.558 230.8C477.798 243.387 469.478 253.093 458.598 259.92C447.718 266.533 434.811 269.84 419.878 269.84ZM407.078 223.76C413.478 223.76 419.131 222.16 424.038 218.96C428.944 215.76 432.891 211.387 435.878 205.84C438.864 200.08 440.358 193.467 440.358 186C440.358 178.533 438.971 172.027 436.198 166.48C433.424 160.72 429.478 156.24 424.358 153.04C419.451 149.84 413.798 148.24 407.398 148.24C400.998 148.24 395.238 149.84 390.118 153.04C385.211 156.24 381.371 160.72 378.598 166.48C375.824 172.24 374.438 178.747 374.438 186C374.438 193.467 375.824 200.08 378.598 205.84C381.371 211.387 385.211 215.76 390.118 218.96C395.024 222.16 400.678 223.76 407.078 223.76Z" fill="#6360AD"/>
<path d="M579.068 269.84C560.081 269.84 545.894 265.36 536.508 256.4C527.334 247.227 522.748 234.213 522.748 217.36V56.08H572.668V204.88C572.668 211.28 573.841 215.973 576.188 218.96C578.534 221.947 582.161 223.44 587.068 223.44C588.988 223.44 591.228 223.013 593.788 222.16C596.348 221.093 598.694 219.813 600.828 218.32L618.108 254.8C612.988 259.067 606.801 262.693 599.548 265.68C592.508 268.453 585.681 269.84 579.068 269.84ZM497.788 147.92V106H609.148V147.92H497.788Z" fill="#6360AD"/>
<path d="M623.248 121.36L643.728 42H694.288L660.368 121.36H623.248Z" fill="#6360AD"/>
<path d="M783.033 269.84C766.179 269.84 751.353 266.32 738.553 259.28C725.753 252.027 715.619 242.107 708.153 229.52C700.899 216.933 697.273 202.427 697.273 186C697.273 169.573 700.793 155.067 707.833 142.48C715.086 129.893 725.113 120.08 737.913 113.04C750.926 105.787 765.646 102.16 782.073 102.16C798.926 102.16 813.753 105.787 826.553 113.04C839.566 120.08 849.593 129.893 856.633 142.48C863.886 155.067 867.513 169.573 867.513 186C867.513 202.427 863.886 216.933 856.633 229.52C849.593 242.107 839.673 252.027 826.873 259.28C814.073 266.32 799.459 269.84 783.033 269.84ZM783.033 223.76C789.433 223.76 795.086 222.16 799.993 218.96C805.113 215.76 809.059 211.387 811.833 205.84C814.819 200.08 816.313 193.467 816.313 186C816.313 178.533 814.819 172.027 811.833 166.48C809.059 160.72 805.113 156.24 799.993 153.04C794.873 149.84 789.006 148.24 782.393 148.24C775.779 148.24 769.913 149.84 764.793 153.04C759.673 156.24 755.619 160.72 752.633 166.48C749.859 172.027 748.473 178.533 748.473 186C748.473 193.467 749.859 200.08 752.633 205.84C755.619 211.387 759.673 215.76 764.793 218.96C770.126 222.16 776.206 223.76 783.033 223.76Z" fill="#6360AD"/>
<path d="M885.443 266V106H932.483L935.363 135.44V266H885.443ZM988.483 266V184.08H1038.4V266H988.483ZM988.483 184.08C988.483 175.547 987.523 168.827 985.603 163.92C983.683 158.8 980.909 155.067 977.283 152.72C973.869 150.373 969.603 149.093 964.483 148.88C954.883 148.667 947.629 151.333 942.723 156.88C937.816 162.213 935.363 170.427 935.363 181.52H920.323C920.323 164.667 922.883 150.373 928.003 138.64C933.123 126.693 940.056 117.627 948.803 111.44C957.763 105.253 968.109 102.16 979.843 102.16C992.643 102.16 1003.42 104.827 1012.16 110.16C1020.91 115.28 1027.42 123.173 1031.68 133.84C1036.16 144.507 1038.4 158.16 1038.4 174.8V184.08H988.483Z" fill="#6360AD"/>
<path d="M85.2812 124.968L60.6497 99.6002C59.4306 98.3446 59.8457 96.2572 61.4525 95.5635L197.178 36.9685C198.633 36.34 200.299 37.2082 200.618 38.7616L204.165 56.0625L206.483 72.5768C206.597 73.3898 206.303 74.1989 205.729 74.7863C198.077 82.6235 189.427 100.379 159.165 115.75C128.763 131.192 97.8562 125.947 87.1229 125.75C86.4284 125.738 85.7651 125.467 85.2812 124.968Z" fill="#746CC5"/>
<path d="M85.2812 124.968L60.6497 99.6002C59.4306 98.3446 59.8457 96.2572 61.4525 95.5635L197.178 36.9685C198.633 36.34 200.299 37.2082 200.618 38.7616L204.165 56.0625L206.483 72.5768C206.597 73.3898 206.303 74.1989 205.729 74.7863C198.077 82.6235 189.427 100.379 159.165 115.75C128.763 131.192 97.8562 125.947 87.1229 125.75C86.4284 125.738 85.7651 125.467 85.2812 124.968Z" fill="url(#paint0_linear_1265_233)"/>
<path d="M99.2678 2.73224L4.70343 97.2966C3.0713 98.9287 4.33393 101.712 6.63702 101.559L140.154 92.6839C140.727 92.6458 141.27 92.4116 141.69 92.0205L233.88 6.33115C235.544 4.78464 234.45 2 232.178 2H101.036C100.372 2 99.7366 2.2634 99.2678 2.73224Z" fill="url(#paint1_linear_1265_233)" stroke="white" stroke-width="2.5" stroke-linecap="round"/>
<path fill-rule="evenodd" clip-rule="evenodd" d="M122.144 47.2341C123.808 45.78 123.977 43.253 122.523 41.5899C121.069 39.9267 118.542 39.7572 116.879 41.2112L55.3672 94.9886C53.7296 96.4203 53.5401 98.8923 54.9228 100.556C62.4812 139.872 61.1326 169.159 49.4855 190.59C47.5074 194.23 45.5469 197.833 43.5867 201.352C34.8678 212.57 21.9052 222.435 11.4825 226.913C9.57971 227.731 8.69997 229.936 9.5176 231.839C10.3352 233.742 12.5406 234.622 14.4434 233.804C18.8096 231.928 23.5228 229.243 28.2114 225.966C23.6524 232.057 19.0239 236.933 14.1927 240.18C12.3591 241.412 11.8716 243.898 13.1038 245.731C14.3361 247.565 16.8214 248.052 18.6549 246.82C26.2322 241.728 32.8638 233.725 38.9424 224.626C39.6593 223.553 40.3716 222.46 41.0798 221.349C37.3841 230.648 32.2646 238.76 27.1094 245.529C25.8546 247.176 26.1731 249.529 27.8207 250.784C29.4683 252.039 31.8213 251.72 33.0761 250.073C42.5258 237.665 52.3036 220.414 53.8694 199.268C54.7533 197.65 55.6347 196.029 56.5145 194.41C69.4872 170.54 70.453 139.009 62.7937 99.1221L122.144 47.2341Z" fill="#6360AD"/>
<path d="M53.6016 193.741L50.558 192.729C49.9782 192.536 49.3439 192.791 49.0583 193.331L46.6892 197.812C46.3282 198.495 46.6667 199.338 47.3996 199.582L50.8386 200.726C51.4554 200.932 52.1266 200.63 52.3824 200.032L54.3562 195.419C54.6439 194.747 54.2955 193.972 53.6016 193.741Z" stroke="#9D91D8" stroke-width="7.5" stroke-linecap="round"/>
<defs>
<linearGradient id="paint0_linear_1265_233" x1="111.055" y1="54.8631" x2="169.51" y2="93.1427" gradientUnits="userSpaceOnUse">
<stop stop-color="#BAA9E3"/>
<stop offset="1" stop-color="#6360AD"/>
</linearGradient>
<linearGradient id="paint1_linear_1265_233" x1="85" y1="23" x2="155" y2="90" gradientUnits="userSpaceOnUse">
<stop stop-color="#BAA9E3"/>
<stop offset="1" stop-color="#6360AD"/>
</linearGradient>
</defs>
</svg>
